<?xml version="1.0" standalone="no"?>
<!DOCTYPE svg PUBLIC "-//W3C//DTD SVG 20010904//EN"
 "http://www.w3.org/TR/2001/REC-SVG-20010904/DTD/svg10.dtd">
<svg version="1.0" xmlns="http://www.w3.org/2000/svg"
 width="4167.000000pt" height="4167.000000pt" viewBox="0 0 4167.000000 4167.000000"
 preserveAspectRatio="xMidYMid meet">

<g transform="translate(0.000000,4167.000000) scale(0.100000,-0.100000)"
fill="#000000" stroke="none">
<path d="M25610 30193 c0 -102 -72 -970 -120 -1458 -16 -159 -28 -290 -27
-291 11 -5 216 -154 342 -248 620 -464 1170 -975 1531 -1421 45 -55 120 -135
167 -178 105 -96 391 -400 566 -605 1037 -1208 1828 -2674 2246 -4161 333
-1183 444 -2409 330 -3631 -153 -1632 -696 -3274 -1628 -4918 -90 -160 -107
-196 -96 -206 8 -7 61 -52 118 -102 194 -165 939 -850 1367 -1256 l71 -68 90
138 c363 554 741 1293 1040 2031 273 674 496 1372 653 2041 194 826 309 1633
350 2449 13 263 13 980 0 1231 -62 1188 -268 2279 -640 3394 -511 1528 -1292
2902 -2360 4146 -996 1161 -2248 2190 -3535 2907 -191 107 -438 233 -455 233
-5 0 -10 -12 -10 -27z"/>
<path d="M15805 30056 c-916 -470 -1716 -1017 -2490 -1701 -1083 -959 -2048
-2158 -2765 -3435 -116 -206 -321 -609 -384 -755 -695 -1597 -1076 -3177
-1157 -4803 -15 -314 -7 -1155 15 -1437 128 -1643 527 -3127 1230 -4580 279
-574 683 -1248 975 -1624 l18 -24 769 709 770 709 -97 155 c-343 552 -707
1309 -974 2025 -852 2288 -982 4564 -380 6645 517 1785 1577 3441 3134 4894
176 164 185 174 228 261 237 470 720 1092 1240 1594 l172 166 -24 660 c-13
363 -25 661 -25 663 -1 8 -38 -10 -255 -122z"/>
</g>
</svg>
